<svg width="1200" height="660" viewBox="0 0 1200 660" fill="none" xmlns="http://www.w3.org/2000/svg">
  <defs>
    <linearGradient id="bg" x1="0" y1="0" x2="1200" y2="660"><stop stop-color="#07111F"/><stop offset=".55" stop-color="#0B1424"/><stop offset="1" stop-color="#12102A"/></linearGradient>
    <linearGradient id="blue" x1="0" y1="0" x2="1" y2="1"><stop stop-color="#38BDF8"/><stop offset="1" stop-color="#2563EB"/></linearGradient>
    <linearGradient id="purple" x1="0" y1="0" x2="1" y2="1"><stop stop-color="#A78BFA"/><stop offset="1" stop-color="#7C3AED"/></linearGradient>
    <linearGradient id="green" x1="0" y1="0" x2="1" y2="1"><stop stop-color="#34D399"/><stop offset="1" stop-color="#059669"/></linearGradient>
    <filter id="glow"><feGaussianBlur stdDeviation="4" result="b"/><feMerge><feMergeNode in="b"/><feMergeNode in="SourceGraphic"/></feMerge></filter>
  </defs>
  <rect width="1200" height="660" rx="22" fill="url(#bg)"/>
  <rect x="1" y="1" width="1198" height="658" rx="21" stroke="#263449"/>

  <g font-family="ui-monospace, SFMono-Regular, Menlo, monospace">
    <text x="62" y="64" fill="#64748B" font-size="14">SURYA / ENGINEERING DASHBOARD</text>
    <circle cx="1090" cy="56" r="6" fill="#34D399"><animate attributeName="opacity" values="1;.2;1" dur="1.5s" repeatCount="indefinite"/></circle>
    <text x="1110" y="61" fill="#34D399" font-size="12">BUILDING</text>

    <g>
      <rect x="62" y="98" width="514" height="205" rx="16" fill="#0B1727" stroke="#22415D"/>
      <rect x="62" y="98" width="5" height="205" rx="2.5" fill="url(#blue)"/>
      <text x="91" y="139" fill="#38BDF8" font-size="13">01 / SYSTEMS SHIPPED</text>
      <text x="91" y="181" fill="#F8FAFC" font-size="18">ERPNext business systems</text>
      <text x="91" y="214" fill="#CBD5E1" font-size="15">Banking · REST API · SFTP</text>
      <text x="91" y="247" fill="#CBD5E1" font-size="15">Vendor · Payment · Biometric · Telegram</text>
      <text x="91" y="280" fill="#64748B" font-size="13">manufacturing / stock / HR / finance</text>
      <path d="M91 158H520" stroke="#38BDF8" stroke-opacity=".25"/>
    </g>

    <g>
      <rect x="624" y="98" width="514" height="205" rx="16" fill="#11152A" stroke="#3B2E67"/>
      <rect x="624" y="98" width="5" height="205" rx="2.5" fill="url(#purple)"/>
      <text x="653" y="139" fill="#A78BFA" font-size="13">02 / PRODUCT ENGINEERING</text>
      <text x="653" y="181" fill="#F8FAFC" font-size="18">React × Frappe</text>
      <text x="653" y="214" fill="#CBD5E1" font-size="15">IIT platform workflows</text>
      <text x="653" y="247" fill="#CBD5E1" font-size="15">Role-aware UI · APIs · automation</text>
      <text x="653" y="280" fill="#64748B" font-size="13">frontend connected to business context</text>
      <path d="M653 158H1082" stroke="#A78BFA" stroke-opacity=".25"/>
    </g>

    <g>
      <rect x="62" y="335" width="514" height="205" rx="16" fill="#101626" stroke="#5B3526"/>
      <rect x="62" y="335" width="5" height="205" rx="2.5" fill="#F97316"/>
      <text x="91" y="376" fill="#F97316" font-size="13">03 / CURRENTLY COMPILING</text>
      <text x="91" y="418" fill="#F8FAFC" font-size="18">AI assistant inside Frappe</text>
      <text x="91" y="451" fill="#CBD5E1" font-size="15">Context-aware · provider-configurable</text>
      <text x="91" y="484" fill="#CBD5E1" font-size="15">Native Desk experience</text>
      <g transform="translate(471 376)">
        <rect width="68" height="25" rx="12.5" fill="#2A1C15"/>
        <text x="34" y="17" fill="#F97316" font-size="10" text-anchor="middle">ACTIVE</text>
        <animateTransform attributeName="transform" type="translate" values="471 376;477 376;471 376" dur="2s" repeatCount="indefinite"/>
      </g>
      <path d="M91 395H520" stroke="#F97316" stroke-opacity=".25"/>
    </g>

    <g>
      <rect x="624" y="335" width="514" height="205" rx="16" fill="#0B1C20" stroke="#1F564A"/>
      <rect x="624" y="335" width="5" height="205" rx="2.5" fill="url(#green)"/>
      <text x="653" y="376" fill="#34D399" font-size="13">04 / ENTERPRISE BRIDGE</text>
      <text x="653" y="418" fill="#F8FAFC" font-size="18">SAP → Frappe</text>
      <text x="653" y="451" fill="#CBD5E1" font-size="15">SQL Server · ODBC · schema discovery</text>
      <text x="653" y="484" fill="#CBD5E1" font-size="15">Migration runs · validation · traceability</text>
      <path d="M653 395H1082" stroke="#34D399" stroke-opacity=".25"/>
    </g>

    <g transform="translate(62 575)">
      <rect width="1076" height="48" rx="12" fill="#070D17" stroke="#253349"/>
      <text x="28" y="30" fill="#38BDF8" font-size="13">PYTHON</text>
      <text x="133" y="30" fill="#A78BFA" font-size="13">FRAPPE</text>
      <text x="238" y="30" fill="#A78BFA" font-size="13">ERPNEXT</text>
      <text x="355" y="30" fill="#F7DF1E" font-size="13">JAVASCRIPT</text>
      <text x="496" y="30" fill="#61DAFB" font-size="13">REACT</text>
      <text x="581" y="30" fill="#34D399" font-size="13">SQL</text>
      <text x="647" y="30" fill="#F97316" font-size="13">REST</text>
      <text x="720" y="30" fill="#F97316" font-size="13">SFTP</text>
      <text x="794" y="30" fill="#38BDF8" font-size="13">LINUX</text>
      <rect x="873" y="15" width="172" height="18" rx="9" fill="#102338"/>
      <rect x="873" y="15" width="58" height="18" rx="9" fill="url(#blue)">
        <animate attributeName="width" values="25;172;25" dur="4s" repeatCount="indefinite"/>
      </rect>
    </g>
  </g>
</svg>
